{"title":"Fast And Furious 6 2013 CAM XviD-SSDD","uid":8487767,"size":1476082737,"categoryP":"video","categoryS":"movies","magnet":"?xt=urn:btih:7a5c8bb9beebc79617a790ffa3ee8e901c694d36&amp;dn=Fast+And+Furious+6+2013+CAM+XviD-SSDD&amp;tr=udp%3A%2F%2Ftracker.openbittorrent.com%3A80&amp;tr=udp%3A%2F%2Fopen.demonii.com%3A1337&amp;tr=udp%3A%2F%2Ftracker.coppersurfer.tk%3A6969&amp;tr=udp%3A%2F%2Fexodus.desync.com%3A6969","seeders":0,"leechers":0,"uploader":"xxxlavalxxx","files":2,"time":1368913603,"description":"\n\n &lt;a href=&quot;\nhttp://www.imdb.com/title/tt1905041/&quot; rel=&quot;nofollow&quot; target=&quot;_NEW&quot;&gt;\nhttp://www.imdb.com/title/tt1905041/&lt;/a&gt;\n\n\n\nPlot: Agent Luke Hobbs enlists Dominic Toretto and his team to bring down former Special Ops soldier Owen Shaw, leader of a unit specializing in vehicular warfare. \n\n\n\nDirector:\n Justin Lin \n\nWriters:\n Chris Morgan (screenplay), Gary Scott Thompson (characters) \n\nStars:\n Dwayne Johnson, Vin Diesel, Paul Walker\n\nGenres:\n  Action |  Crime |  Thriller \n\nCountry:\n USA \n\nLanguage:\n English \n\n\nSource - Fast.And.Furious.6.2013.720p.CAM-TheCod3r (Many Thanks)\n\n NOTES - Enjoy. Ran a smoother over this to try and eliminate the blocking as best i could, changed frame rate to 25, resized to 720 x 352 also cropped where i could but theres still camera movement and some black bars in parts.\n\n General\n Complete name                            : Fast And Furious 6 2013 CAM XviD-SSDD.avi\n Format                                   : AVI\n Format/Info                              : Audio Video Interleave\n File size                                : 1.37 GiB\n Duration                                 : 2h 0mn\n Overall bit rate                         : 1 630 Kbps\n Writing library                          : VirtualDub build 32842/release\n\n Video\n ID                                       : 0\n Format                                   : MPEG-4 Visual\n Format profile                           : Advanced Simple@L5\n Format settings, BVOP                    : 2\n Format settings, QPel                    : No\n Format settings, GMC                     : No warppoints\n Format settings, Matrix                  : Default (H.263)\n Muxing mode                              : Packed bitstream\n Codec ID                                 : XVID\n Codec ID/Hint                            : XviD\n Duration                                 : 2h 0mn\n Bit rate                                 : 1 492 Kbps\n Width                                    : 720 pixels\n Height                                   : 352 pixels\n Display aspect ratio                     : 2.045\n Frame rate                               : 25.000 fps\n Color space                              : YUV\n Chroma subsampling                       : 4:2:0\n Bit depth                                : 8 bits\n Scan type                                : Progressive\n Compression mode                         : Lossy\n Bits/(Pixel*Frame)                       : 0.235\n Stream size                              : 1.26 GiB (92%)\n Writing library                          : XviD 64\n\n Audio\n ID                                       : 1\n Format                                   : MPEG Audio\n Format version                           : Version 1\n Format profile                           : Layer 3\n Mode                                     : Joint stereo\n Mode extension                           : MS Stereo\n Codec ID                                 : 55\n Codec ID/Hint                            : MP3\n Duration                                 : 2h 0mn\n Bit rate mode                            : Constant\n Bit rate                                 : 128 Kbps\n Channel(s)                               : 2 channels\n Sampling rate                            : 48.0 KHz\n Compression mode                         : Lossy\n Stream size                              : 111 MiB (8%)\n Alignment                                : Split accross interleaves\n Interleave, duration                     : 40 ms (1.00 video frame)\n Interleave, preload duration             : 500 ms\n\n\n\n\nscreens\n\n\n\n    &lt;a href=&quot;\thttp://addpix.net/viewer.php?file=91232959160281521187.jpg&quot; rel=&quot;nofollow&quot; target=&quot;_NEW&quot;&gt;\thttp://addpix.net/viewer.php?file=91232959160281521187.jpg&lt;/a&gt;\n    &lt;a href=&quot;\thttp://addpix.net/viewer.php?file=08591754722490678601.jpg&quot; rel=&quot;nofollow&quot; target=&quot;_NEW&quot;&gt;\thttp://addpix.net/viewer.php?file=08591754722490678601.jpg&lt;/a&gt;\n    &lt;a href=&quot;\thttp://addpix.net/viewer.php?file=56063204418536626990.jpg&quot; rel=&quot;nofollow&quot; target=&quot;_NEW&quot;&gt;\thttp://addpix.net/viewer.php?file=56063204418536626990.jpg&lt;/a&gt;\n    &lt;a href=&quot;\thttp://addpix.net/viewer.php?file=23073191056440242954.jpg&quot; rel=&quot;nofollow&quot; target=&quot;_NEW&quot;&gt;\thttp://addpix.net/viewer.php?file=23073191056440242954.jpg&lt;/a&gt;\n    &lt;a href=&quot;\thttp://addpix.net/viewer.php?file=52179729031027828382.jpg&quot; rel=&quot;nofollow&quot; target=&quot;_NEW&quot;&gt;\thttp://addpix.net/viewer.php?file=52179729031027828382.jpg&lt;/a&gt;\n    &lt;a href=&quot;\thttp://addpix.net/viewer.php?file=19321352894248763753.jpg&quot; rel=&quot;nofollow&quot; target=&quot;_NEW&quot;&gt;\thttp://addpix.net/viewer.php?file=19321352894248763753.jpg&lt;/a&gt;","torrent":{"xt":"urn:btih:7a5c8bb9beebc79617a790ffa3ee8e901c694d36","amp;dn":"Fast+And+Furious+6+2013+CAM+XviD-SSDD","amp;tr":["udp%3A%2F%2Ftracker.openbittorrent.com%3A80","udp%3A%2F%2Fopen.demonii.com%3A1337","udp%3A%2F%2Ftracker.coppersurfer.tk%3A6969","udp%3A%2F%2Fexodus.desync.com%3A6969"],"infoHash":"7a5c8bb9beebc79617a790ffa3ee8e901c694d36","infoHashBuffer":{"type":"Buffer","data":[122,92,139,185,190,235,199,150,23,167,144,255,163,238,142,144,28,105,77,54]},"announce":[],"urlList":[]}}